<svg width="24" height="24" viewBox="0 0 24 24" fill="none" xmlns="http://www.w3.org/2000/svg">
<mask id="mask0_13_507" style="mask-type:alpha" maskUnits="userSpaceOnUse" x="0" y="0" width="24" height="24">
<rect width="24" height="24" fill="#D9D9D9"/>
</mask>
<g mask="url(#mask0_13_507)">
<path d="M12.0001 12C10.9001 12 9.95846 11.6083 9.17512 10.825C8.39179 10.0417 8.00012 9.1 8.00012 8C8.00012 6.9 8.39179 5.95833 9.17512 5.175C9.95846 4.39167 10.9001 4 12.0001 4C13.1001 4 14.0418 4.39167 14.8251 5.175C15.6085 5.95833 16.0001 6.9 16.0001 8C16.0001 9.1 15.6085 10.0417 14.8251 10.825C14.0418 11.6083 13.1001 12 12.0001 12ZM4.00012 20V17.2C4.00012 16.6333 4.14596 16.1125 4.43762 15.6375C4.72929 15.1625 5.11679 14.8 5.60012 14.55C6.63346 14.0333 7.68346 13.6458 8.75012 13.3875C9.81679 13.1292 10.9001 13 12.0001 13C13.1001 13 14.1835 13.1292 15.2501 13.3875C16.3168 13.6458 17.3668 14.0333 18.4001 14.55C18.8835 14.8 19.271 15.1625 19.5626 15.6375C19.8543 16.1125 20.0001 16.6333 20.0001 17.2V20H4.00012ZM6.00012 18H18.0001V17.2C18.0001 17.0167 17.9543 16.85 17.8626 16.7C17.771 16.55 17.6501 16.4333 17.5001 16.35C16.6001 15.9 15.6918 15.5625 14.7751 15.3375C13.8585 15.1125 12.9335 15 12.0001 15C11.0668 15 10.1418 15.1125 9.22512 15.3375C8.30845 15.5625 7.40012 15.9 6.50012 16.35C6.35012 16.4333 6.22929 16.55 6.13762 16.7C6.04596 16.85 6.00012 17.0167 6.00012 17.2V18ZM12.0001 10C12.5501 10 13.021 9.80417 13.4126 9.4125C13.8043 9.02083 14.0001 8.55 14.0001 8C14.0001 7.45 13.8043 6.97917 13.4126 6.5875C13.021 6.19583 12.5501 6 12.0001 6C11.4501 6 10.9793 6.19583 10.5876 6.5875C10.196 6.97917 10.0001 7.45 10.0001 8C10.0001 8.55 10.196 9.02083 10.5876 9.4125C10.9793 9.80417 11.4501 10 12.0001 10Z" fill="white"/>
</g>
</svg>
