<svg width="30" height="30" viewBox="0 0 30 30" fill="none" xmlns="http://www.w3.org/2000/svg">
<path d="M8.78771 0.104907C7.1917 0.180208 6.10179 0.434911 5.14898 0.809315C4.16287 1.19362 3.32706 1.70932 2.49545 2.54393C1.66384 3.37854 1.15174 4.21495 0.770132 5.20256C0.400828 6.15747 0.150626 7.24828 0.0801251 8.8452C0.00962443 10.4421 -0.00597574 10.9554 0.00182434 15.0289C0.00962442 19.1023 0.0276246 19.6129 0.105025 21.2131C0.181226 22.8088 0.435029 23.8985 0.809433 24.8516C1.19434 25.8377 1.70944 26.6732 2.54435 27.5051C3.37926 28.337 4.21507 28.8479 5.20508 29.2301C6.15909 29.5988 7.2502 29.8502 8.84682 29.9201C10.4434 29.99 10.9573 30.0062 15.0296 29.9984C19.1018 29.9906 19.6145 29.9726 21.2144 29.8967C22.8144 29.8208 23.8983 29.5652 24.8517 29.1926C25.8378 28.8068 26.6739 28.2926 27.5052 27.4574C28.3365 26.6222 28.8483 25.7852 29.2296 24.797C29.5992 23.843 29.8503 22.7518 29.9196 21.1564C29.9895 19.5553 30.006 19.0441 29.9982 14.9713C29.9904 10.8984 29.9721 10.3878 29.8962 8.7882C29.8203 7.18858 29.5662 6.10227 29.1921 5.14856C28.8066 4.16245 28.2921 3.32754 27.4575 2.49503C26.6229 1.66252 25.7853 1.15102 24.7974 0.770614C23.8428 0.401311 22.7523 0.149608 21.1556 0.0806072C19.559 0.0116065 19.0451 -0.00609364 14.9714 0.00170643C10.8976 0.00950651 10.3876 0.0269067 8.78771 0.104907ZM8.96292 27.2216C7.5004 27.158 6.70629 26.915 6.17709 26.7116C5.47628 26.4416 4.97708 26.1152 4.44967 25.5929C3.92226 25.0706 3.59826 24.5696 3.32466 23.8703C3.11916 23.341 2.87165 22.5478 2.80325 21.0853C2.72885 19.5046 2.71325 19.03 2.70455 15.0253C2.69585 11.0205 2.71115 10.5465 2.78045 8.9652C2.84285 7.50388 3.08736 6.70888 3.29046 6.17997C3.56046 5.47826 3.88566 4.97996 4.40917 4.45285C4.93267 3.92575 5.43218 3.60114 6.13209 3.32754C6.66069 3.12114 7.4539 2.87574 8.91582 2.80614C10.4977 2.73113 10.9717 2.71613 14.9759 2.70743C18.98 2.69873 19.4552 2.71373 21.0377 2.78333C22.4991 2.84694 23.2944 3.08904 23.8227 3.29334C24.5238 3.56334 25.0227 3.88765 25.5498 4.41205C26.0769 4.93646 26.4018 5.43416 26.6754 6.13557C26.8821 6.66267 27.1275 7.45558 27.1965 8.9184C27.2718 10.5003 27.2889 10.9746 27.2961 14.9785C27.3033 18.9823 27.2892 19.4578 27.2199 21.0385C27.156 22.501 26.9136 23.2954 26.7099 23.8252C26.4399 24.5258 26.1144 25.0253 25.5906 25.5521C25.0668 26.0789 24.5679 26.4035 23.8677 26.6771C23.3397 26.8832 22.5456 27.1292 21.0848 27.1988C19.5029 27.2732 19.0289 27.2888 15.0233 27.2975C11.0176 27.3062 10.5451 27.29 8.96322 27.2216M21.1913 6.98308C21.1919 7.33911 21.2981 7.68698 21.4964 7.98267C21.6947 8.27836 21.9763 8.50861 22.3054 8.64428C22.6346 8.77995 22.9966 8.81496 23.3457 8.74487C23.6948 8.67479 24.0152 8.50276 24.2665 8.25054C24.5178 7.99833 24.6886 7.67725 24.7574 7.32793C24.8262 6.97861 24.7899 6.61672 24.653 6.28805C24.5162 5.95938 24.2849 5.67868 23.9885 5.48146C23.692 5.28424 23.3438 5.17935 22.9878 5.18006C22.5105 5.18101 22.0531 5.37149 21.7162 5.70961C21.3793 6.04772 21.1905 6.50579 21.1913 6.98308ZM7.2982 15.0151C7.3066 19.2691 10.7614 22.7098 15.0146 22.7017C19.2677 22.6936 22.7109 19.2391 22.7028 14.9851C22.6947 10.731 19.2389 7.28938 14.9852 7.29778C10.7314 7.30618 7.2901 10.7616 7.2982 15.0151ZM10 15.0097C9.99807 14.0207 10.2894 13.0534 10.8372 12.2301C11.385 11.4067 12.1646 10.7643 13.0776 10.384C13.9905 10.0038 14.9956 9.90276 15.9659 10.0938C16.9363 10.2848 17.8281 10.7592 18.5288 11.4571C19.2295 12.155 19.7074 13.045 19.9023 14.0146C20.0972 14.9841 20.0001 15.9897 19.6235 16.9041C19.2468 17.8185 18.6075 18.6007 17.7863 19.1517C16.9652 19.7028 15.999 19.9979 15.0101 19.9999C14.3534 20.0013 13.7029 19.8733 13.0958 19.6232C12.4886 19.3732 11.9366 19.006 11.4714 18.5426C11.0061 18.0792 10.6367 17.5287 10.3843 16.9225C10.1318 16.3163 10.0012 15.6663 10 15.0097Z" fill="white"/>
</svg>
