<svg width="54" height="53" viewBox="0 0 54 53" fill="none" xmlns="http://www.w3.org/2000/svg">
<mask id="mask0_44_1319" style="mask-type:alpha" maskUnits="userSpaceOnUse" x="0" y="0" width="54" height="53">
<rect x="0.5" width="53" height="53" fill="#D9D9D9"/>
</mask>
<g mask="url(#mask0_44_1319)">
<path d="M23.9087 36.6582L39.4774 21.0894L36.3857 17.9978L23.9087 30.4748L17.6149 24.1811L14.5232 27.2728L23.9087 36.6582ZM27.0003 48.5832C23.9455 48.5832 21.0746 48.0035 18.3878 46.8441C15.701 45.6847 13.3639 44.1113 11.3764 42.1238C9.38887 40.1363 7.81543 37.7991 6.65605 35.1123C5.49668 32.4255 4.91699 29.5547 4.91699 26.4998C4.91699 23.445 5.49668 20.5741 6.65605 17.8873C7.81543 15.2005 9.38887 12.8634 11.3764 10.8759C13.3639 8.88838 15.701 7.31494 18.3878 6.15557C21.0746 4.99619 23.9455 4.4165 27.0003 4.4165C30.0552 4.4165 32.926 4.99619 35.6128 6.15557C38.2996 7.31494 40.6368 8.88838 42.6243 10.8759C44.6118 12.8634 46.1852 15.2005 47.3446 17.8873C48.504 20.5741 49.0837 23.445 49.0837 26.4998C49.0837 29.5547 48.504 32.4255 47.3446 35.1123C46.1852 37.7991 44.6118 40.1363 42.6243 42.1238C40.6368 44.1113 38.2996 45.6847 35.6128 46.8441C32.926 48.0035 30.0552 48.5832 27.0003 48.5832ZM27.0003 44.1665C31.9323 44.1665 36.1097 42.455 39.5326 39.0321C42.9555 35.6092 44.667 31.4318 44.667 26.4998C44.667 21.5679 42.9555 17.3905 39.5326 13.9675C36.1097 10.5446 31.9323 8.83317 27.0003 8.83317C22.0684 8.83317 17.891 10.5446 14.468 13.9675C11.0451 17.3905 9.33366 21.5679 9.33366 26.4998C9.33366 31.4318 11.0451 35.6092 14.468 39.0321C17.891 42.455 22.0684 44.1665 27.0003 44.1665Z" fill="#777777"/>
</g>
</svg>
